<svg id="Layer_3" enable-background="new 0 0 64 64" height="512" viewBox="0 0 64 64" width="512" xmlns="http://www.w3.org/2000/svg"><g><path d="m20 49h22v2h-22z"/><path d="m26 53h12v2h-12z"/><path d="m26 57h12v2h-12z"/><path d="m43 17h-9v-16h-2v20h-2v-20h-2v16h-9c-2.757 0-5 2.243-5 5v36c0 2.757 2.243 5 5 5h24c2.757 0 5-2.243 5-5v-36c0-2.757-2.243-5-5-5zm-9 2h2v2h-2zm-6 2h-2v-2h2zm18 37c0 1.654-1.346 3-3 3h-24c-1.654 0-3-1.346-3-3v-36c0-1.654 1.346-3 3-3h5v3c0 .552.448 1 1 1h12c.552 0 1-.448 1-1v-3h5c1.654 0 3 1.346 3 3z"/><path d="m34.618 33-1.724-3.447c-.339-.678-1.45-.678-1.789 0l-1.723 3.447h-3.382c-.404 0-.769.244-.924.617-.155.374-.069.804.217 1.09l2.6 2.6-.863 3.451c-.095.379.04.778.345 1.023.303.244.724.288 1.073.114l3.552-1.777 3.553 1.776c.141.071.295.106.447.106.223 0 .445-.075.625-.22.305-.245.439-.644.345-1.023l-.863-3.451 2.6-2.6c.286-.286.372-.716.217-1.09-.155-.372-.52-.616-.924-.616zm-.325 3.293c-.249.249-.348.609-.263.95l.473 1.891-2.055-1.028c-.141-.071-.295-.106-.448-.106s-.307.035-.447.105l-2.055 1.028.473-1.891c.085-.341-.015-.701-.263-.95l-1.294-1.292h1.586c.379 0 .725-.214.895-.553l1.105-2.211 1.105 2.211c.17.339.516.553.895.553h1.586z"/><path d="m32 25c-6.065 0-11 4.935-11 11s4.935 11 11 11 11-4.935 11-11-4.935-11-11-11zm0 20c-4.962 0-9-4.038-9-9s4.038-9 9-9 9 4.038 9 9-4.038 9-9 9z"/></g></svg>